<svg width="117" height="93" viewBox="0 0 117 93" fill="none" xmlns="http://www.w3.org/2000/svg">
<path fill-rule="evenodd" clip-rule="evenodd" d="M14.625 23.8386V74.8243C19.4609 73.0976 26.3452 71.3 34.125 71.3C41.8721 71.3 48.7495 73.0833 53.625 74.8239V23.8386C52.5657 23.3528 51.1358 22.7486 49.4159 22.1428C45.3934 20.7262 39.9922 19.375 34.125 19.375C25.6613 19.375 18.2333 22.1843 14.625 23.8386ZM63.375 23.8386V75.0115C68.2388 73.3743 75.1237 71.6875 82.875 71.6875C90.6555 71.6875 97.5463 73.3859 102.375 75.0115V23.8386C98.7665 22.1843 91.339 19.375 82.875 19.375C77.0079 19.375 71.6064 20.7262 67.5841 22.1428C65.8642 22.7486 64.4343 23.3528 63.375 23.8386ZM58.5 17.1269C57.1847 16.5239 55.4453 15.7897 53.3656 15.0572C48.5858 13.3738 41.7995 11.625 34.125 11.625C22.8729 11.625 13.4664 15.3863 9.37838 17.299C6.37548 18.7041 4.875 21.2236 4.875 23.6849V77.5926C4.875 80.0118 6.67607 81.8423 8.75214 82.7654C10.8056 83.6779 13.5811 83.9201 16.0992 82.8688C20.1075 81.1948 26.732 79.05 34.125 79.05C43.4143 79.05 51.4425 82.4329 54.5259 83.9399C56.919 85.1093 59.9469 85.1434 62.38 84.0305C65.4766 82.615 73.5301 79.4375 82.875 79.4375C90.3888 79.4375 97.0944 81.4932 101.093 83.0668C105.731 84.8916 112.125 82.4627 112.125 77.7298V23.6849C112.125 21.2236 110.624 18.7041 107.621 17.299C103.534 15.3863 94.127 11.625 82.875 11.625C75.2003 11.625 68.4143 13.3738 63.6343 15.0572C61.5547 15.7897 59.8153 16.5239 58.5 17.1269Z" fill="white"/>
</svg>
